{
	"asset":{
		"generator":"Khronos glTF Blender I/O v4.4.55",
		"version":"2.0"
	},
	"scene":0,
	"scenes":[
		{
			"name":"Scene",
			"nodes":[
				0
			]
		}
	],
	"nodes":[
		{
			"mesh":0,
			"name":"back",
			"rotation":[
				0,
				1,
				0,
				1.6292068494294654e-07
			],
			"translation":[
				-28.98198890686035,
				0,
				0
			]
		}
	],
	"materials":[
		{
			"doubleSided":true,
			"name":"back",
			"pbrMetallicRoughness":{
				"baseColorTexture":{
					"index":0
				},
				"roughnessFactor":0.5824175477027893
			}
		},
		{
			"doubleSided":true,
			"emissiveFactor":[
				4.16851781375226e-05,
				5.210412981369113e-06,
				0.0015553011563240737
			],
			"name":"Material",
			"pbrMetallicRoughness":{
				"baseColorTexture":{
					"index":1
				},
				"roughnessFactor":0.19230769574642181
			}
		}
	],
	"meshes":[
		{
			"name":"Cube.007",
			"primitives":[
				{
					"attributes":{
						"POSITION":0,
						"NORMAL":1,
						"TEXCOORD_0":2
					},
					"indices":3,
					"material":0
				},
				{
					"attributes":{
						"POSITION":4,
						"NORMAL":5,
						"TEXCOORD_0":6
					},
					"indices":7,
					"material":1
				}
			]
		}
	],
	"textures":[
		{
			"sampler":0,
			"source":0
		},
		{
			"sampler":0,
			"source":1
		}
	],
	"images":[
		{
			"mimeType":"image/png",
			"name":"Material.001 Base Color",
			"uri":"Material_001%20Base%20Color.png"
		},
		{
			"mimeType":"image/png",
			"name":"Material",
			"uri":"Material.png"
		}
	],
	"accessors":[
		{
			"bufferView":0,
			"componentType":5126,
			"count":582,
			"max":[
				1.5,
				3,
				1.1841027736663818
			],
			"min":[
				-14.308847427368164,
				0,
				-1.1841027736663818
			],
			"type":"VEC3"
		},
		{
			"bufferView":1,
			"componentType":5126,
			"count":582,
			"type":"VEC3"
		},
		{
			"bufferView":2,
			"componentType":5126,
			"count":582,
			"type":"VEC2"
		},
		{
			"bufferView":3,
			"componentType":5123,
			"count":1302,
			"type":"SCALAR"
		},
		{
			"bufferView":4,
			"componentType":5126,
			"count":100,
			"max":[
				1.2069909572601318,
				2.3570520877838135,
				1.1841027736663818
			],
			"min":[
				-13.788273811340332,
				0.5011786222457886,
				-1.1841027736663818
			],
			"type":"VEC3"
		},
		{
			"bufferView":5,
			"componentType":5126,
			"count":100,
			"type":"VEC3"
		},
		{
			"bufferView":6,
			"componentType":5126,
			"count":100,
			"type":"VEC2"
		},
		{
			"bufferView":7,
			"componentType":5123,
			"count":150,
			"type":"SCALAR"
		}
	],
	"bufferViews":[
		{
			"buffer":0,
			"byteLength":6984,
			"byteOffset":0,
			"target":34962
		},
		{
			"buffer":0,
			"byteLength":6984,
			"byteOffset":6984,
			"target":34962
		},
		{
			"buffer":0,
			"byteLength":4656,
			"byteOffset":13968,
			"target":34962
		},
		{
			"buffer":0,
			"byteLength":2604,
			"byteOffset":18624,
			"target":34963
		},
		{
			"buffer":0,
			"byteLength":1200,
			"byteOffset":21228,
			"target":34962
		},
		{
			"buffer":0,
			"byteLength":1200,
			"byteOffset":22428,
			"target":34962
		},
		{
			"buffer":0,
			"byteLength":800,
			"byteOffset":23628,
			"target":34962
		},
		{
			"buffer":0,
			"byteLength":300,
			"byteOffset":24428,
			"target":34963
		}
	],
	"samplers":[
		{
			"magFilter":9729,
			"minFilter":9987
		}
	],
	"buffers":[
		{
			"byteLength":24728,
			"uri":"rbs%20brokie.bin"
		}
	]
}
