{
	"asset":{
		"copyright":"einbaumhaus",
		"generator":"Khronos glTF Blender I/O v4.4.55",
		"version":"2.0"
	},
	"scene":0,
	"scenes":[
		{
			"name":"Scene",
			"nodes":[
				0,
				1,
				2,
				3,
				4,
				5,
				6,
				7
			]
		}
	],
	"nodes":[
		{
			"mesh":0,
			"name":"base"
		},
		{
			"mesh":1,
			"name":"roll_holder"
		},
		{
			"mesh":2,
			"name":"flippy1"
		},
		{
			"mesh":3,
			"name":"flippy2"
		},
		{
			"mesh":4,
			"name":"trigger",
			"scale":[
				0.22312545776367188,
				0.22312545776367188,
				0.22312545776367188
			],
			"translation":[
				0,
				-0.6821922659873962,
				1.1145533323287964
			]
		},
		{
			"mesh":5,
			"name":"date_input",
			"scale":[
				0.2833930253982544,
				0.2833930253982544,
				0.2833930253982544
			],
			"translation":[
				0,
				0,
				-1.362860918045044
			]
		},
		{
			"mesh":6,
			"name":"roll",
			"rotation":[
				0,
				0,
				-0.7071068286895752,
				0.7071068286895752
			],
			"scale":[
				2.6903486251831055,
				5.533537864685059,
				2.6903486251831055
			],
			"translation":[
				1.8393806219100952,
				0.04621552675962448,
				-0.0011455491185188293
			]
		},
		{
			"mesh":7,
			"name":"roll_tape",
			"rotation":[
				0,
				0,
				-0.7071068286895752,
				0.7071068286895752
			],
			"scale":[
				2.6903486251831055,
				5.533537864685059,
				2.6903486251831055
			],
			"translation":[
				1.8393806219100952,
				0.04621552675962448,
				-0.0011455491185188293
			]
		}
	],
	"meshes":[
		{
			"name":"Cube.001",
			"primitives":[
				{
					"attributes":{
						"POSITION":0,
						"NORMAL":1,
						"TEXCOORD_0":2
					},
					"indices":3
				}
			]
		},
		{
			"name":"Cube.002",
			"primitives":[
				{
					"attributes":{
						"POSITION":4,
						"NORMAL":5,
						"TEXCOORD_0":6
					},
					"indices":7
				}
			]
		},
		{
			"name":"Cube.003",
			"primitives":[
				{
					"attributes":{
						"POSITION":8,
						"NORMAL":9,
						"TEXCOORD_0":10
					},
					"indices":11
				}
			]
		},
		{
			"name":"Cube.004",
			"primitives":[
				{
					"attributes":{
						"POSITION":12,
						"NORMAL":13,
						"TEXCOORD_0":14
					},
					"indices":15
				}
			]
		},
		{
			"name":"Cube.005",
			"primitives":[
				{
					"attributes":{
						"POSITION":16,
						"NORMAL":17,
						"TEXCOORD_0":18
					},
					"indices":19
				}
			]
		},
		{
			"name":"Cube.006",
			"primitives":[
				{
					"attributes":{
						"POSITION":20,
						"NORMAL":21,
						"TEXCOORD_0":22
					},
					"indices":23
				}
			]
		},
		{
			"name":"Cylinder.001",
			"primitives":[
				{
					"attributes":{
						"POSITION":24,
						"NORMAL":25,
						"TEXCOORD_0":26
					},
					"indices":27
				}
			]
		},
		{
			"name":"Cylinder.002",
			"primitives":[
				{
					"attributes":{
						"POSITION":28,
						"NORMAL":29,
						"TEXCOORD_0":30
					},
					"indices":31
				}
			]
		}
	],
	"accessors":[
		{
			"bufferView":0,
			"componentType":5126,
			"count":175,
			"max":[
				0.37815195322036743,
				1.3154897689819336,
				2.396652936935425
			],
			"min":[
				-0.37815195322036743,
				-1.1899632215499878,
				-2.2723805904388428
			],
			"type":"VEC3"
		},
		{
			"bufferView":1,
			"componentType":5126,
			"count":175,
			"type":"VEC3"
		},
		{
			"bufferView":2,
			"componentType":5126,
			"count":175,
			"type":"VEC2"
		},
		{
			"bufferView":3,
			"componentType":5123,
			"count":297,
			"type":"SCALAR"
		},
		{
			"bufferView":4,
			"componentType":5126,
			"count":89,
			"max":[
				0.3373242914676666,
				1.3154897689819336,
				0.8776540756225586
			],
			"min":[
				-0.37815195322036743,
				0.32675817608833313,
				-0.9298596382141113
			],
			"type":"VEC3"
		},
		{
			"bufferView":5,
			"componentType":5126,
			"count":89,
			"type":"VEC3"
		},
		{
			"bufferView":6,
			"componentType":5126,
			"count":89,
			"type":"VEC2"
		},
		{
			"bufferView":7,
			"componentType":5123,
			"count":153,
			"type":"SCALAR"
		},
		{
			"bufferView":8,
			"componentType":5126,
			"count":18,
			"max":[
				0.2788383960723877,
				-1.1503914594650269,
				0.22619237005710602
			],
			"min":[
				-0.27822303771972656,
				-1.1932528018951416,
				-1.8744796514511108
			],
			"type":"VEC3"
		},
		{
			"bufferView":9,
			"componentType":5126,
			"count":18,
			"type":"VEC3"
		},
		{
			"bufferView":10,
			"componentType":5126,
			"count":18,
			"type":"VEC2"
		},
		{
			"bufferView":11,
			"componentType":5123,
			"count":24,
			"type":"SCALAR"
		},
		{
			"bufferView":12,
			"componentType":5126,
			"count":56,
			"max":[
				0.2788383960723877,
				-0.5754734873771667,
				0.02925752103328705
			],
			"min":[
				-0.27878695726394653,
				-1.1571606397628784,
				-1.6899287700653076
			],
			"type":"VEC3"
		},
		{
			"bufferView":13,
			"componentType":5126,
			"count":56,
			"type":"VEC3"
		},
		{
			"bufferView":14,
			"componentType":5126,
			"count":56,
			"type":"VEC2"
		},
		{
			"bufferView":15,
			"componentType":5123,
			"count":90,
			"type":"SCALAR"
		},
		{
			"bufferView":16,
			"componentType":5126,
			"count":138,
			"max":[
				0.5844155550003052,
				2.041346788406372,
				4.788306713104248
			],
			"min":[
				-0.5844155550003052,
				-2.503899574279785,
				-3.8688106536865234
			],
			"type":"VEC3"
		},
		{
			"bufferView":17,
			"componentType":5126,
			"count":138,
			"type":"VEC3"
		},
		{
			"bufferView":18,
			"componentType":5126,
			"count":138,
			"type":"VEC2"
		},
		{
			"bufferView":19,
			"componentType":5123,
			"count":264,
			"type":"SCALAR"
		},
		{
			"bufferView":20,
			"componentType":5126,
			"count":94,
			"max":[
				1,
				2.9047815799713135,
				1.1949177980422974
			],
			"min":[
				-1.4085811376571655,
				-0.2850702702999115,
				-1.4308637380599976
			],
			"type":"VEC3"
		},
		{
			"bufferView":21,
			"componentType":5126,
			"count":94,
			"type":"VEC3"
		},
		{
			"bufferView":22,
			"componentType":5126,
			"count":94,
			"type":"VEC2"
		},
		{
			"bufferView":23,
			"componentType":5123,
			"count":150,
			"type":"SCALAR"
		},
		{
			"bufferView":24,
			"componentType":5126,
			"count":96,
			"max":[
				-0.03900744020938873,
				-0.27470827102661133,
				0.15711507201194763
			],
			"min":[
				-0.3532375693321228,
				-0.3971814513206482,
				-0.15711507201194763
			],
			"type":"VEC3"
		},
		{
			"bufferView":25,
			"componentType":5126,
			"count":96,
			"type":"VEC3"
		},
		{
			"bufferView":26,
			"componentType":5126,
			"count":96,
			"type":"VEC2"
		},
		{
			"bufferView":27,
			"componentType":5123,
			"count":192,
			"type":"SCALAR"
		},
		{
			"bufferView":28,
			"componentType":5126,
			"count":4,
			"max":[
				-0.3548326790332794,
				-0.27470827102661133,
				-0.30045127868652344
			],
			"min":[
				-0.3548326790332794,
				-0.3971814513206482,
				-0.8621608018875122
			],
			"type":"VEC3"
		},
		{
			"bufferView":29,
			"componentType":5126,
			"count":4,
			"type":"VEC3"
		},
		{
			"bufferView":30,
			"componentType":5126,
			"count":4,
			"type":"VEC2"
		},
		{
			"bufferView":31,
			"componentType":5123,
			"count":6,
			"type":"SCALAR"
		}
	],
	"bufferViews":[
		{
			"buffer":0,
			"byteLength":2100,
			"byteOffset":0,
			"target":34962
		},
		{
			"buffer":0,
			"byteLength":2100,
			"byteOffset":2100,
			"target":34962
		},
		{
			"buffer":0,
			"byteLength":1400,
			"byteOffset":4200,
			"target":34962
		},
		{
			"buffer":0,
			"byteLength":594,
			"byteOffset":5600,
			"target":34963
		},
		{
			"buffer":0,
			"byteLength":1068,
			"byteOffset":6196,
			"target":34962
		},
		{
			"buffer":0,
			"byteLength":1068,
			"byteOffset":7264,
			"target":34962
		},
		{
			"buffer":0,
			"byteLength":712,
			"byteOffset":8332,
			"target":34962
		},
		{
			"buffer":0,
			"byteLength":306,
			"byteOffset":9044,
			"target":34963
		},
		{
			"buffer":0,
			"byteLength":216,
			"byteOffset":9352,
			"target":34962
		},
		{
			"buffer":0,
			"byteLength":216,
			"byteOffset":9568,
			"target":34962
		},
		{
			"buffer":0,
			"byteLength":144,
			"byteOffset":9784,
			"target":34962
		},
		{
			"buffer":0,
			"byteLength":48,
			"byteOffset":9928,
			"target":34963
		},
		{
			"buffer":0,
			"byteLength":672,
			"byteOffset":9976,
			"target":34962
		},
		{
			"buffer":0,
			"byteLength":672,
			"byteOffset":10648,
			"target":34962
		},
		{
			"buffer":0,
			"byteLength":448,
			"byteOffset":11320,
			"target":34962
		},
		{
			"buffer":0,
			"byteLength":180,
			"byteOffset":11768,
			"target":34963
		},
		{
			"buffer":0,
			"byteLength":1656,
			"byteOffset":11948,
			"target":34962
		},
		{
			"buffer":0,
			"byteLength":1656,
			"byteOffset":13604,
			"target":34962
		},
		{
			"buffer":0,
			"byteLength":1104,
			"byteOffset":15260,
			"target":34962
		},
		{
			"buffer":0,
			"byteLength":528,
			"byteOffset":16364,
			"target":34963
		},
		{
			"buffer":0,
			"byteLength":1128,
			"byteOffset":16892,
			"target":34962
		},
		{
			"buffer":0,
			"byteLength":1128,
			"byteOffset":18020,
			"target":34962
		},
		{
			"buffer":0,
			"byteLength":752,
			"byteOffset":19148,
			"target":34962
		},
		{
			"buffer":0,
			"byteLength":300,
			"byteOffset":19900,
			"target":34963
		},
		{
			"buffer":0,
			"byteLength":1152,
			"byteOffset":20200,
			"target":34962
		},
		{
			"buffer":0,
			"byteLength":1152,
			"byteOffset":21352,
			"target":34962
		},
		{
			"buffer":0,
			"byteLength":768,
			"byteOffset":22504,
			"target":34962
		},
		{
			"buffer":0,
			"byteLength":384,
			"byteOffset":23272,
			"target":34963
		},
		{
			"buffer":0,
			"byteLength":48,
			"byteOffset":23656,
			"target":34962
		},
		{
			"buffer":0,
			"byteLength":48,
			"byteOffset":23704,
			"target":34962
		},
		{
			"buffer":0,
			"byteLength":32,
			"byteOffset":23752,
			"target":34962
		},
		{
			"buffer":0,
			"byteLength":12,
			"byteOffset":23784,
			"target":34963
		}
	],
	"buffers":[
		{
			"byteLength":23796,
			"uri":"sticker%20launcher.bin"
		}
	]
}
